Coordinates
version=1
nRows=6
nColumns=36
inDegrees=yes

Units are S.I. units (second, meters, Newtons, ...)
If the header above contains a line with 'inDegrees', this indicates whether rotational values are in degrees (yes) or radians (no).

endheader
time	pelvis_tilt	pelvis_list	pelvis_rotation	pelvis_tx	pelvis_ty	pelvis_tz	hip_flexion_r	hip_adduction_r	hip_rotation_r	knee_angle_r	knee_angle_r_beta	ankle_angle_r	subtalar_angle_r	mtp_angle_r	hip_flexion_l	hip_adduction_l	hip_rotation_l	knee_angle_l	knee_angle_l_beta	ankle_angle_l	subtalar_angle_l	mtp_angle_l	lumbar_extension	lumbar_bending	lumbar_rotation	arm_flex_r	arm_add_r	arm_rot_r	elbow_flex_r	pro_sup_r	arm_flex_l	arm_add_l	arm_rot_l	elbow_flex_l	pro_sup_l
      4.45000000	     24.68774476	     -1.02013249	      1.80895166	      0.05916742	      0.64471677	     -0.09701374	     45.68502906	     -2.42949592	      3.06216284	     87.33830126	      1.52434092	     11.87749200	    -26.08944944	     -7.49999987	     47.15901349	     -3.21939419	      6.83155964	     85.97991211	      1.50063256	     15.73137640	     -7.72129189	     -7.49999987	    -38.80073852	      1.15845932	     -3.30201695	     16.23906927	    -12.31110738	     28.98074652	     27.29487841	     80.83267374	     10.04741226	    -10.16804327	     11.51598671	     27.04063588	     65.51162374
      4.46666670	     24.66318930	     -1.01010452	      1.83931545	      0.05953652	      0.64565015	     -0.09707041	     45.73758798	     -2.40697860	      3.08012254	     87.42954859	      1.52593349	     11.83174121	    -26.11729139	     -7.49999987	     47.18461949	     -3.21254452	      6.82151644	     86.00739041	      1.50111214	     15.77449902	     -7.64365992	     -7.49999987	    -38.64713721	      1.14099494	     -3.36156677	     16.38483388	    -12.36134358	     29.79358510	     26.75850308	     81.08571256	     10.31271805	    -10.35099410	     12.78073789	     26.48272759	     65.06684045
      4.48333330	     24.65887963	     -1.01844094	      1.85948967	      0.05902080	      0.64462763	     -0.09763195	     45.80905587	     -2.46838872	      3.03998292	     87.54393529	      1.52792991	     11.69461864	    -26.27268097	     -7.49999987	     47.29437097	     -3.18230914	      6.83418841	     86.12944035	      1.50324232	     15.90808472	     -7.48087788	     -7.49999987	    -38.78194105	      1.13540878	     -3.38325948	     16.41804716	    -12.41781542	     29.85261225	     26.82388302	     80.51120757	     10.44585755	    -10.46063876	     12.88710752	     26.63598847	     64.77714450
      4.50000000	     24.54050595	     -0.95397509	      1.89742775	      0.05868562	      0.64465864	     -0.09657962	     46.00620537	     -2.55190672	      3.03467525	     87.57971029	      1.52855430	     12.42094663	    -25.58024497	     -7.49999987	     47.46319004	     -3.12812168	      6.87836272	     86.10093596	      1.50274482	     15.84600434	     -7.40440798	     -7.49999987	    -38.76747922	      1.03695865	     -3.41901385	     16.17344035	    -12.66047815	     29.81608416	     27.54512164	     80.01583409	     10.34750298	    -10.66299065	     12.85532870	     27.41873991	     64.64034397
      4.51666670	     24.56316115	     -0.95044520	      1.92624112	      0.06029840	      0.64538893	     -0.09760100	     45.86988874	     -2.55638432	      3.07662705	     87.48575920	      1.52691455	     11.89338157	    -26.08239518	     -7.49999987	     47.30199560	     -3.15047228	      6.80863702	     85.97386491	      1.50052701	     15.86918808	     -7.35839829	     -7.49999987	    -38.67722728	      1.10533162	     -3.45433435	     16.54657410	    -12.44094554	     30.49081093	     26.22731201	     80.04321505	     10.87561977	    -10.62571620	     13.63166030	     26.25529488	     64.37171570
      4.53333330	     24.53806949	     -0.91726421	      1.87791099	      0.06006055	      0.64530224	     -0.09783026	     45.89497618	     -2.58047219	      3.07986578	     87.47581466	      1.52674098	     11.71507648	    -26.20784507	     -7.49999987	     47.32586354	     -3.13465102	      6.77821647	     86.01915926	      1.50131755	     15.88153922	     -7.31793369	     -7.49999987	    -38.73266325	      1.00087505	     -3.43245661	     16.54877924	    -12.57438067	     30.66750215	     26.46970321	     79.55281111	     10.92206951	    -10.81609952	     13.83565362	     26.54924206	     64.11466627
